<svg width="36" height="36" viewBox="0 0 36 36" fill="none" xmlns="http://www.w3.org/2000/svg">
<g id="ant-design:instagram-filled">
<path id="Vector" d="M17.9999 13.3139C15.4195 13.3139 13.3136 15.4198 13.3136 18.0003C13.3136 20.5807 15.4195 22.6866 17.9999 22.6866C20.5804 22.6866 22.6863 20.5807 22.6863 18.0003C22.6863 15.4198 20.5804 13.3139 17.9999 13.3139ZM32.0554 18.0003C32.0554 16.0596 32.073 14.1366 31.964 12.1995C31.855 9.94948 31.3417 7.95261 29.6964 6.30729C28.0476 4.65847 26.0542 4.1487 23.8042 4.03972C21.8636 3.93073 19.9406 3.94831 18.0034 3.94831C16.0628 3.94831 14.1398 3.93073 12.2027 4.03972C9.95266 4.1487 7.95578 4.66198 6.31047 6.30729C4.66164 7.95612 4.15188 9.94948 4.04289 12.1995C3.93391 14.1401 3.95149 16.0631 3.95149 18.0003C3.95149 19.9374 3.93391 21.8639 4.04289 23.801C4.15188 26.051 4.66516 28.0479 6.31047 29.6932C7.9593 31.342 9.95266 31.8518 12.2027 31.9608C14.1433 32.0698 16.0663 32.0522 18.0034 32.0522C19.9441 32.0522 21.8671 32.0698 23.8042 31.9608C26.0542 31.8518 28.0511 31.3385 29.6964 29.6932C31.3453 28.0444 31.855 26.051 31.964 23.801C32.0765 21.8639 32.0554 19.9409 32.0554 18.0003ZM17.9999 25.2108C14.0097 25.2108 10.7894 21.9905 10.7894 18.0003C10.7894 14.01 14.0097 10.7897 17.9999 10.7897C21.9902 10.7897 25.2105 14.01 25.2105 18.0003C25.2105 21.9905 21.9902 25.2108 17.9999 25.2108ZM25.5058 12.1784C24.5742 12.1784 23.8218 11.426 23.8218 10.4944C23.8218 9.56276 24.5742 8.81042 25.5058 8.81042C26.4374 8.81042 27.1898 9.56276 27.1898 10.4944C27.1901 10.7156 27.1467 10.9347 27.0622 11.1392C26.9776 11.3436 26.8536 11.5293 26.6972 11.6858C26.5407 11.8422 26.355 11.9662 26.1506 12.0508C25.9461 12.1353 25.727 12.1787 25.5058 12.1784Z" fill="black"/>
</g>
</svg>
